<svg version="1.0" xmlns="http://www.w3.org/2000/svg" width="2900.000000pt" height="2200.000000pt" viewBox="0 0 1900.000000 1300.000000" preserveAspectRatio="xMidYMid meet">

<g transform="translate(0.000000,1300.000000) scale(0.100000,-0.100000)" fill="#000000" stroke="none">
<path d="M11140 12443 c-322 -13 -697 -68 -1025 -149 -849 -210 -1615 -647 -1969 -1124 -588 -790 -832 -2333 -520 -3288 47 -144 148 -348 224 -454 219 -306 626 -572 1200 -786 355 -132 910 -272 1305 -328 66 -10 124 -20 128 -24 16 -14 -321 -21 -513 -10 -765 41 -1443 242 -1996 593 -298 189 -485 397 -639 712 -120 245 -185 480 -227 825 -20 162 -16 716 6 905 37 318 107 673 187 956 22 78 38 143 36 145 -2 2 -75 -16 -163 -40 -684 -191 -2004 -522 -2889 -726 -441 -102 -604 -158 -859 -297 -278 -152 -550 -377 -744 -616 -436 -537 -721 -1290 -992 -2622 -101 -497 -224 -866 -432 -1295 -210 -436 -446 -809 -758 -1201 -44 -55 -80 -109 -80 -120 0 -11 11 -31 26 -45 42 -43 64 -32 255 132 362 310 771 880 1099 1531 54 107 100 196 102 198 2 3 -45 -3120 -65 -4193 l-4 -272 976 2 976 3 42 540 c23 297 47 608 52 690 6 83 16 202 21 265 6 63 24 292 40 509 17 217 31 396 33 397 1 1 110 14 242 29 234 26 740 91 939 121 54 8 101 13 103 10 7 -7 -245 -102 -372 -141 -201 -61 -555 -135 -646 -135 -27 0 -29 -2 -29 -41 0 -75 42 -1012 60 -1339 37 -663 52 -876 64 -888 12 -11 189 -21 406 -21 229 -1 1192 19 1198 24 2 2 19 214 37 472 19 257 36 493 40 523 3 30 10 132 15 225 6 94 15 224 20 290 6 66 24 320 40 565 17 245 33 463 36 486 l5 41 82 11 c45 6 484 69 975 138 491 70 894 125 897 123 4 -5 27 -658 45 -1294 6 -198 12 -403 15 -455 2 -52 12 -324 21 -605 9 -280 19 -513 22 -516 11 -9 2216 33 2227 42 9 9 78 633 190 1724 14 138 48 461 75 718 28 258 50 475 50 483 0 11 16 14 68 14 100 0 310 27 441 56 395 89 757 281 1023 544 65 65 83 78 67 51 -79 -136 -266 -350 -393 -450 -249 -197 -566 -335 -889 -386 l-39 -6 6 -82 c4 -45 17 -318 31 -607 35 -754 45 -955 55 -1135 5 -88 17 -330 27 -537 l17 -378 31 -4 c16 -3 262 -10 545 -16 283 -7 729 -17 990 -24 261 -7 476 -12 477 -11 1 0 -11 221 -27 490 -16 270 -32 540 -35 600 -3 61 -10 178 -16 260 -48 741 -149 2483 -149 2570 0 358 118 625 321 724 115 56 310 76 450 47 225 -48 375 -215 549 -609 l71 -162 132 65 c427 212 867 382 1332 515 208 59 220 64 219 86 0 13 -19 134 -42 269 -64 376 -99 664 -192 1585 -47 458 -82 777 -111 985 -11 80 -22 161 -24 180 -30 223 -103 611 -156 829 -177 732 -421 1284 -757 1716 -301 387 -672 679 -1158 908 -267 126 -490 212 -827 316 -448 140 -1095 217 -1627 194z m-995 -1394 c554 -68 939 -536 912 -1108 -7 -142 -30 -249 -81 -375 -113 -281 -322 -494 -575 -586 -450 -164 -963 38 -1091 431 -21 62 -25 94 -25 199 0 153 7 191 47 236 41 46 77 64 133 64 87 0 153 -49 175 -131 13 -47 6 -87 -23 -144 -47 -93 -17 -207 82 -305 104 -103 255 -160 425 -160 187 0 327 60 467 199 180 180 268 414 256 676 -20 412 -286 722 -678 791 -220 38 -513 -13 -754 -133 -223 -111 -434 -318 -595 -583 -364 -598 -524 -1561 -364 -2195 78 -308 248 -597 505 -854 82 -82 233 -210 309 -263 l25 -18 -26 10 c-60 20 -192 93 -290 159 -326 218 -560 522 -679 880 -74 221 -107 504 -97 821 22 651 208 1254 528 1714 87 125 309 346 424 422 294 195 674 292 990 253z m3067 -1746 c59 -32 103 -91 118 -158 35 -155 -100 -301 -260 -282 -61 7 -99 27 -144 73 -93 96 -80 266 27 348 47 36 74 45 146 45 51 1 73 -4 113 -26z m2192 -1560 c-326 -539 -882 -906 -1661 -1097 -146 -36 -389 -80 -504 -92 l-64 -6 -1 263 c0 145 -4 296 -8 335 l-7 71 138 7 c836 42 1641 258 2083 559 36 25 66 43 68 42 2 -2 -18 -38 -44 -82z m-2632 -546 c12 -20 23 -243 22 -455 -1 -117 -4 -215 -6 -217 -11 -11 -180 -17 -301 -10 l-137 7 0 350 0 350 208 -7 c125 -5 210 -12 214 -18z m282 -79 c3 -50 6 -203 6 -340 l0 -248 -42 0 -41 0 6 138 c7 127 -7 484 -19 525 -5 14 1 17 39 17 l44 0 7 -92z"/>
<path d="M12592 7170 c-31 -13 -55 -71 -43 -104 22 -57 94 -74 136 -31 41 40 33 105 -16 130 -32 17 -44 18 -77 5z"/>
<path d="M12573 6928 c-30 -34 -34 -55 -19 -92 34 -81 156 -56 156 31 0 72 -91 112 -137 61z"/>
<path d="M12592 6720 c-31 -13 -55 -71 -43 -104 22 -57 94 -74 136 -31 42 41 31 105 -22 133 -25 14 -39 14 -71 2z"/>
<path d="M15905 5206 c-459 -131 -884 -294 -1288 -493 -213 -105 -198 -84 -143 -206 l33 -71 -23 -51 c-29 -64 -56 -197 -48 -233 17 -68 61 -112 114 -112 18 0 21 4 16 28 -3 15 -8 58 -12 96 l-7 68 24 -7 c32 -9 43 -24 95 -127 263 -521 664 -1049 999 -1317 262 -209 549 -364 900 -484 206 -70 184 -74 224 35 93 257 290 606 496 879 l35 46 -75 47 c-197 125 -414 332 -567 542 -105 145 -150 218 -244 399 -124 238 -210 468 -299 805 -35 129 -57 196 -66 197 -8 1 -81 -17 -164 -41z"/>
<path d="M17411 3060 c-148 -200 -273 -405 -360 -592 -59 -128 -114 -268 -107 -276 6 -6 192 -45 293 -62 299 -50 873 -75 1172 -51 80 6 146 13 147 14 1 1 -33 207 -75 457 l-78 455 -89 -3 c-220 -9 -525 46 -739 132 l-85 34 -79 -108z"/>
</g>
</svg>